PathFileType	4	(X/Y/Z)	/Users/mathieubourgeois/Desktop/Analyse/Traitement/Sujet_08/Data/Transformed_Sujet_08_velo_60.trc
DataRate	CameraRate	NumFrames	NumMarkers	Units	OrigDataRate	OrigDataStartFrame	OrigNumFrames
120.000000	120.000000	4	35	mm	120.000000	1399	1866
Frame#	Time	RFHD			RANE			STRN			LANI			LKNE			T10			RHUM			RWRB			C7			LFWT			LTOE			RTOE			LWRA			LBWT			RBWT			RFWT			LKNI			RKNI			RKNE			LANE			RANI			LHEE			LHUM			LRAD			RRAD			RWRA			LWRB			LFHD			LBHD			RBHD			RSHO			LSHO			CLAV			LCAR			RCAR			
		X1	Y1	Z1	X2	Y2	Z2	X3	Y3	Z3	X4	Y4	Z4	X5	Y5	Z5	X6	Y6	Z6	X7	Y7	Z7	X8	Y8	Z8	X9	Y9	Z9	X10	Y10	Z10	X11	Y11	Z11	X12	Y12	Z12	X13	Y13	Z13	X14	Y14	Z14	X15	Y15	Z15	X16	Y16	Z16	X17	Y17	Z17	X18	Y18	Z18	X19	Y19	Z19	X20	Y20	Z20	X21	Y21	Z21	X22	Y22	Z22	X23	Y23	Z23	X24	Y24	Z24	X25	Y25	Z25	X26	Y26	Z26	X27	Y27	Z27	X28	Y28	Z28	X29	Y29	Z29	X30	Y30	Z30	X31	Y31	Z31	X32	Y32	Z32	X33	Y33	Z33	X34	Y34	Z34	X35	Y35	Z35	

1400	11.65833333333333	226.2641143798828	1512.5634765625	69.12741851806634	-49.04378509521487	368.6205444335938	172.0260162353515	-52.79033279418945	1166.215698242188	15.11397647857658	-273.2319946289062	507.1872863769531	-72.59816741943365	-2.923064231872539	806.50634765625	-158.3738403320313	-205.1885528564453	1357.19775390625	17.22286415100087	150.140380859375	1083.968505859375	195.8905181884765	329.9829406738281	909.3340454101562	250.2386169433593	11.99625205993652	1437.987182617188	12.58543205261222	-263.6719665527344	1101.984497070312	-99.99091339111338	-201.8473205566406	333.6409912109375	-120.0261688232422	137.0399932861328	298.1631164550781	141.9099731445312	359.8994140625	936.243896484375	-171.2587585449219	-403.1858825683594	1155.009765625	-28.91973876953137	-394.1835021972656	1152.8095703125	101.8696975708007	-236.9114837646485	1093.90576171875	129.3131866455077	-37.71820831298827	748.3762817382812	-54.39981842041021	9.802849769592276	715.2528076171875	75.17917633056636	-20.72955703735354	778.1234741210938	177.7997589111328	-309.4900207519531	520.4011840820312	-152.7464752197266	-22.36903762817384	384.7417907714844	92.97646331787107	-355.7659606933594	528.8543090820312	-109.0126190185548	132.1963043212891	1078.08984375	-172.5466003417969	186.6612243652344	1109.61572265625	-222.6493225097657	191.2055969238281	1107.856689453125	241.976318359375	360.6573181152344	929.9511108398438	186.7651824951172	323.1369323730469	895.993896484375	-223.3620758056641	227.9862365722656	1527.08251953125	-57.55049896240241	72.10972595214845	1544.457153320312	-67.61988830566415	61.81107330322265	1545.981811523438	69.5547332763671	66.50959014892577	1369.776977539062	133.7363281249999	50.87437438964845	1367.418823242188	-131.567840576172	54.78969573974609	1305.442504882812	6.87275695800774	421.1049499511719	911.4360961914062	-254.4288635253906	432.0117797851562	897.2518310546875	278.6593627929688	
1401	11.66666666666667	226.5739898681641	1513.011840820312	67.95798492431634	-51.44562149047854	359.3331298828125	171.8477478027343	-52.2700080871582	1166.380004882812	14.67553615570061	-269.8155212402344	516.19091796875	-73.3794784545899	1.442789435386677	813.8006591796875	-157.8138275146485	-204.7453918457031	1357.207153320312	17.01877784728993	150.5690002441406	1084.217529296875	195.5936889648437	330.0822753906249	909.3743286132812	250.2176055908203	12.34115123748779	1438.198486328125	11.7463083267211	-263.2821044921875	1102.358154296875	-99.60941314697276	-199.1662902832031	342.8673400878906	-119.9566650390625	134.6814270019531	288.6338500976562	141.7075805664062	359.966064453125	936.2391967773438	-171.3464508056641	-402.698974609375	1155.2392578125	-28.2884101867677	-393.3836975097656	1152.76318359375	102.4583663940429	-236.2718658447266	1093.509521484375	129.693862915039	-33.99994659423827	754.8135986328125	-53.85343933105474	4.248735427856436	706.8286743164062	75.31465148925777	-25.78998184204104	769.4088745117188	177.0105438232421	-306.4457397460938	529.68212890625	-152.4724121093751	-24.76290893554689	375.8839111328125	92.96637725830075	-352.8733520507812	538.2595825195312	-108.772819519043	132.3503112792969	1078.154174804688	-173.0056915283203	186.800537109375	1109.60205078125	-223.2064056396485	191.7094116210937	1108.146484375	241.6136779785156	360.8664245605469	929.886962890625	186.7331085205078	323.24658203125	895.9569091796875	-223.4240112304688	228.2171478271484	1527.433227539062	-58.75531005859381	72.24979400634767	1544.610473632812	-68.6064987182618	62.07518768310546	1546.295166015625	68.53911590576163	67.27575683593749	1370.32275390625	132.836441040039	51.02470016479494	1367.525634765625	-132.4405670166016	55.24280548095703	1305.673583984375	6.09509468078606	421.2368774414063	911.356689453125	-254.4169616699219	432.1350402832031	897.2359008789062	278.6709899902344	
1402	11.675	226.8936462402344	1513.427612304688	66.78428649902337	-54.30503463745119	350.4710388183594	171.8745880126953	-51.74946594238281	1166.54150390625	14.16014766693107	-266.5610656738281	525.1008911132812	-72.98309326171881	5.721874713897725	821.2818603515625	-157.1294860839844	-204.3300933837891	1357.192626953125	16.85320472717274	150.9512023925781	1084.43408203125	195.3052368164062	330.3061523437499	909.4420166015625	250.2449645996093	12.6846113204956	1438.414184570312	10.9123468399047	-262.9089660644531	1102.764770507812	-99.20907592773447	-195.8975219726562	352.0982971191406	-119.9447784423829	131.8156127929687	279.1844787597656	141.4716186523438	360.0182495117188	936.25341796875	-171.4422302246094	-402.2745666503906	1155.449951171875	-27.69448661804211	-392.5515441894531	1152.646606445312	102.9982910156249	-235.6277923583985	1093.06982421875	129.9692077636718	-29.32253265380859	761.4179077148438	-52.84827804565435	-0.8286789059639069	698.442626953125	75.47338104248043	-31.6438846588135	761.697998046875	177.4122619628906	-303.1440124511719	538.8211669921875	-152.0887298583985	-26.93887519836427	367.4456481933594	93.21473693847653	-349.6846923828125	547.3486938476562	-108.3884887695313	132.456283569336	1078.228271484375	-173.4269561767578	186.9172668457032	1109.572998046875	-223.6962432861328	192.1776885986328	1108.426513671875	241.2599029541015	360.990234375	929.8287963867188	186.6839447021484	323.3396301269531	895.9202880859375	-223.5238647460938	228.3621826171875	1527.739013671875	-59.97059249877936	72.37132263183595	1544.774047851562	-69.67218017578134	62.33945846557616	1546.57421875	67.54055023193351	67.73146057128905	1370.314086914062	132.0322875976562	51.1444778442383	1367.619384765625	-133.2620697021485	55.67527770996094	1305.896362304688	5.277050018310474	421.3425292968751	911.2826538085938	-254.4534912109375	432.2309875488281	897.2301635742188	278.6648864746094	
1403	11.68333333333333	227.2089996337891	1513.8525390625	65.66841125488274	-57.63225936889651	341.8452758789062	171.9148864746093	-51.35007858276367	1166.695678710938	13.74711322784416	-262.9562072753906	533.79443359375	-72.57762145996099	9.945055961608906	828.998291015625	-156.420150756836	-203.9297180175781	1357.162841796875	16.63913536071767	151.3713989257812	1084.68408203125	195.0207824707031	330.3901062011718	909.4663696289062	250.1966094970703	12.970383644104	1438.646850585938	10.11479663848868	-262.5309448242188	1103.174560546875	-98.87743377685557	-192.1086883544922	361.6974792480469	-120.5452423095704	128.4497985839843	269.8912048339844	141.26904296875	360.0548095703125	936.2665405273438	-171.5550384521484	-401.7596130371094	1155.662719726562	-27.05626296997082	-391.7408752441406	1152.480834960938	103.6187286376952	-235.0293731689453	1092.5673828125	130.3911743164062	-24.30345916748046	768.3431396484375	-52.14684677124028	-6.495176792144784	690.274169921875	75.50172424316402	-37.30884170532229	753.4524536132812	178.1253967285156	-299.5255737304688	547.7705078125	-151.6546173095704	-29.18590927124025	359.191162109375	93.53985595703122	-346.1406555175781	556.1094360351562	-107.9759902954102	132.5438537597657	1078.2900390625	-173.839828491211	187.0187225341797	1109.536865234375	-224.1874389648438	192.6051330566406	1108.705078125	240.9656829833984	361.1346435546875	929.7860107421875	186.6142272949219	323.398681640625	895.8707275390625	-223.6130828857422	228.5081634521484	1528.008422851562	-61.15071868896491	72.4991912841797	1544.9306640625	-70.65201568603524	62.63296508789062	1546.85107421875	66.54167938232413	68.52626037597655	1370.84228515625	131.045181274414	51.2139015197754	1367.720581054688	-134.0647583007813	56.01134872436523	1306.134155273438	4.450972557067798	421.4239196777344	911.224365234375	-254.495849609375	432.3317871093749	897.2256469726562	278.6119689941406	
